<svg xmlns="http://www.w3.org/2000/svg" width="512" height="512" viewBox="0 0 512 512" shape-rendering="crispEdges" role="img" aria-label="ポケログBDSP">
  <rect width="512" height="512" fill="#0a0a0a"/>
  <rect x="206" y="56" width="25" height="25" fill="#3460c4"/>
  <rect x="231" y="56" width="25" height="25" fill="#3460c4"/>
  <rect x="256" y="56" width="25" height="25" fill="#3460c4"/>
  <rect x="281" y="56" width="25" height="25" fill="#3460c4"/>
  <rect x="156" y="81" width="25" height="25" fill="#3460c4"/>
  <rect x="181" y="81" width="25" height="25" fill="#3460c4"/>
  <rect x="206" y="81" width="25" height="25" fill="#3460c4"/>
  <rect x="231" y="81" width="25" height="25" fill="#3460c4"/>
  <rect x="256" y="81" width="25" height="25" fill="#3460c4"/>
  <rect x="281" y="81" width="25" height="25" fill="#3460c4"/>
  <rect x="306" y="81" width="25" height="25" fill="#3460c4"/>
  <rect x="331" y="81" width="25" height="25" fill="#3460c4"/>
  <rect x="131" y="106" width="25" height="25" fill="#3460c4"/>
  <rect x="156" y="106" width="25" height="25" fill="#e3350d"/>
  <rect x="181" y="106" width="25" height="25" fill="#3460c4"/>
  <rect x="206" y="106" width="25" height="25" fill="#3460c4"/>
  <rect x="231" y="106" width="25" height="25" fill="#3460c4"/>
  <rect x="256" y="106" width="25" height="25" fill="#3460c4"/>
  <rect x="281" y="106" width="25" height="25" fill="#3460c4"/>
  <rect x="306" y="106" width="25" height="25" fill="#3460c4"/>
  <rect x="331" y="106" width="25" height="25" fill="#e3350d"/>
  <rect x="356" y="106" width="25" height="25" fill="#3460c4"/>
  <rect x="106" y="131" width="25" height="25" fill="#3460c4"/>
  <rect x="131" y="131" width="25" height="25" fill="#3460c4"/>
  <rect x="156" y="131" width="25" height="25" fill="#e3350d"/>
  <rect x="181" y="131" width="25" height="25" fill="#e3350d"/>
  <rect x="206" y="131" width="25" height="25" fill="#3460c4"/>
  <rect x="231" y="131" width="25" height="25" fill="#3460c4"/>
  <rect x="256" y="131" width="25" height="25" fill="#3460c4"/>
  <rect x="281" y="131" width="25" height="25" fill="#3460c4"/>
  <rect x="306" y="131" width="25" height="25" fill="#e3350d"/>
  <rect x="331" y="131" width="25" height="25" fill="#e3350d"/>
  <rect x="356" y="131" width="25" height="25" fill="#3460c4"/>
  <rect x="381" y="131" width="25" height="25" fill="#3460c4"/>
  <rect x="81" y="156" width="25" height="25" fill="#3460c4"/>
  <rect x="106" y="156" width="25" height="25" fill="#3460c4"/>
  <rect x="131" y="156" width="25" height="25" fill="#3460c4"/>
  <rect x="156" y="156" width="25" height="25" fill="#3460c4"/>
  <rect x="181" y="156" width="25" height="25" fill="#e3350d"/>
  <rect x="206" y="156" width="25" height="25" fill="#e3350d"/>
  <rect x="231" y="156" width="25" height="25" fill="#3460c4"/>
  <rect x="256" y="156" width="25" height="25" fill="#3460c4"/>
  <rect x="281" y="156" width="25" height="25" fill="#e3350d"/>
  <rect x="306" y="156" width="25" height="25" fill="#e3350d"/>
  <rect x="331" y="156" width="25" height="25" fill="#3460c4"/>
  <rect x="356" y="156" width="25" height="25" fill="#3460c4"/>
  <rect x="381" y="156" width="25" height="25" fill="#3460c4"/>
  <rect x="406" y="156" width="25" height="25" fill="#3460c4"/>
  <rect x="81" y="181" width="25" height="25" fill="#3460c4"/>
  <rect x="106" y="181" width="25" height="25" fill="#3460c4"/>
  <rect x="131" y="181" width="25" height="25" fill="#3460c4"/>
  <rect x="156" y="181" width="25" height="25" fill="#3460c4"/>
  <rect x="181" y="181" width="25" height="25" fill="#3460c4"/>
  <rect x="206" y="181" width="25" height="25" fill="#e3350d"/>
  <rect x="231" y="181" width="25" height="25" fill="#e3350d"/>
  <rect x="256" y="181" width="25" height="25" fill="#e3350d"/>
  <rect x="281" y="181" width="25" height="25" fill="#e3350d"/>
  <rect x="306" y="181" width="25" height="25" fill="#3460c4"/>
  <rect x="331" y="181" width="25" height="25" fill="#3460c4"/>
  <rect x="356" y="181" width="25" height="25" fill="#3460c4"/>
  <rect x="381" y="181" width="25" height="25" fill="#3460c4"/>
  <rect x="406" y="181" width="25" height="25" fill="#3460c4"/>
  <rect x="56" y="206" width="25" height="25" fill="#3460c4"/>
  <rect x="81" y="206" width="25" height="25" fill="#3460c4"/>
  <rect x="106" y="206" width="25" height="25" fill="#3460c4"/>
  <rect x="131" y="206" width="25" height="25" fill="#3460c4"/>
  <rect x="156" y="206" width="25" height="25" fill="#3460c4"/>
  <rect x="181" y="206" width="25" height="25" fill="#3460c4"/>
  <rect x="206" y="206" width="25" height="25" fill="#3460c4"/>
  <rect x="231" y="206" width="25" height="25" fill="#0a0a0a"/>
  <rect x="256" y="206" width="25" height="25" fill="#0a0a0a"/>
  <rect x="281" y="206" width="25" height="25" fill="#3460c4"/>
  <rect x="306" y="206" width="25" height="25" fill="#3460c4"/>
  <rect x="331" y="206" width="25" height="25" fill="#3460c4"/>
  <rect x="356" y="206" width="25" height="25" fill="#3460c4"/>
  <rect x="381" y="206" width="25" height="25" fill="#3460c4"/>
  <rect x="406" y="206" width="25" height="25" fill="#3460c4"/>
  <rect x="431" y="206" width="25" height="25" fill="#3460c4"/>
  <rect x="56" y="231" width="25" height="25" fill="#0a0a0a"/>
  <rect x="81" y="231" width="25" height="25" fill="#0a0a0a"/>
  <rect x="106" y="231" width="25" height="25" fill="#0a0a0a"/>
  <rect x="131" y="231" width="25" height="25" fill="#0a0a0a"/>
  <rect x="156" y="231" width="25" height="25" fill="#0a0a0a"/>
  <rect x="181" y="231" width="25" height="25" fill="#0a0a0a"/>
  <rect x="206" y="231" width="25" height="25" fill="#f5f5f5"/>
  <rect x="231" y="231" width="25" height="25" fill="#f5f5f5"/>
  <rect x="256" y="231" width="25" height="25" fill="#f5f5f5"/>
  <rect x="281" y="231" width="25" height="25" fill="#f5f5f5"/>
  <rect x="306" y="231" width="25" height="25" fill="#0a0a0a"/>
  <rect x="331" y="231" width="25" height="25" fill="#0a0a0a"/>
  <rect x="356" y="231" width="25" height="25" fill="#0a0a0a"/>
  <rect x="381" y="231" width="25" height="25" fill="#0a0a0a"/>
  <rect x="406" y="231" width="25" height="25" fill="#0a0a0a"/>
  <rect x="431" y="231" width="25" height="25" fill="#0a0a0a"/>
  <rect x="56" y="256" width="25" height="25" fill="#0a0a0a"/>
  <rect x="81" y="256" width="25" height="25" fill="#0a0a0a"/>
  <rect x="106" y="256" width="25" height="25" fill="#0a0a0a"/>
  <rect x="131" y="256" width="25" height="25" fill="#0a0a0a"/>
  <rect x="156" y="256" width="25" height="25" fill="#0a0a0a"/>
  <rect x="181" y="256" width="25" height="25" fill="#0a0a0a"/>
  <rect x="206" y="256" width="25" height="25" fill="#f5f5f5"/>
  <rect x="231" y="256" width="25" height="25" fill="#f5f5f5"/>
  <rect x="256" y="256" width="25" height="25" fill="#f5f5f5"/>
  <rect x="281" y="256" width="25" height="25" fill="#f5f5f5"/>
  <rect x="306" y="256" width="25" height="25" fill="#0a0a0a"/>
  <rect x="331" y="256" width="25" height="25" fill="#0a0a0a"/>
  <rect x="356" y="256" width="25" height="25" fill="#0a0a0a"/>
  <rect x="381" y="256" width="25" height="25" fill="#0a0a0a"/>
  <rect x="406" y="256" width="25" height="25" fill="#0a0a0a"/>
  <rect x="431" y="256" width="25" height="25" fill="#0a0a0a"/>
  <rect x="56" y="281" width="25" height="25" fill="#f5f5f5"/>
  <rect x="81" y="281" width="25" height="25" fill="#f5f5f5"/>
  <rect x="106" y="281" width="25" height="25" fill="#f5f5f5"/>
  <rect x="131" y="281" width="25" height="25" fill="#f5f5f5"/>
  <rect x="156" y="281" width="25" height="25" fill="#f5f5f5"/>
  <rect x="181" y="281" width="25" height="25" fill="#f5f5f5"/>
  <rect x="206" y="281" width="25" height="25" fill="#f5f5f5"/>
  <rect x="231" y="281" width="25" height="25" fill="#0a0a0a"/>
  <rect x="256" y="281" width="25" height="25" fill="#0a0a0a"/>
  <rect x="281" y="281" width="25" height="25" fill="#f5f5f5"/>
  <rect x="306" y="281" width="25" height="25" fill="#f5f5f5"/>
  <rect x="331" y="281" width="25" height="25" fill="#f5f5f5"/>
  <rect x="356" y="281" width="25" height="25" fill="#f5f5f5"/>
  <rect x="381" y="281" width="25" height="25" fill="#f5f5f5"/>
  <rect x="406" y="281" width="25" height="25" fill="#f5f5f5"/>
  <rect x="431" y="281" width="25" height="25" fill="#f5f5f5"/>
  <rect x="81" y="306" width="25" height="25" fill="#f5f5f5"/>
  <rect x="106" y="306" width="25" height="25" fill="#f5f5f5"/>
  <rect x="131" y="306" width="25" height="25" fill="#f5f5f5"/>
  <rect x="156" y="306" width="25" height="25" fill="#f5f5f5"/>
  <rect x="181" y="306" width="25" height="25" fill="#f5f5f5"/>
  <rect x="206" y="306" width="25" height="25" fill="#f5f5f5"/>
  <rect x="231" y="306" width="25" height="25" fill="#f5f5f5"/>
  <rect x="256" y="306" width="25" height="25" fill="#f5f5f5"/>
  <rect x="281" y="306" width="25" height="25" fill="#f5f5f5"/>
  <rect x="306" y="306" width="25" height="25" fill="#f5f5f5"/>
  <rect x="331" y="306" width="25" height="25" fill="#f5f5f5"/>
  <rect x="356" y="306" width="25" height="25" fill="#f5f5f5"/>
  <rect x="381" y="306" width="25" height="25" fill="#f5f5f5"/>
  <rect x="406" y="306" width="25" height="25" fill="#f5f5f5"/>
  <rect x="81" y="331" width="25" height="25" fill="#f5f5f5"/>
  <rect x="106" y="331" width="25" height="25" fill="#f5f5f5"/>
  <rect x="131" y="331" width="25" height="25" fill="#f5f5f5"/>
  <rect x="156" y="331" width="25" height="25" fill="#f5f5f5"/>
  <rect x="181" y="331" width="25" height="25" fill="#f5f5f5"/>
  <rect x="206" y="331" width="25" height="25" fill="#f5f5f5"/>
  <rect x="231" y="331" width="25" height="25" fill="#f5f5f5"/>
  <rect x="256" y="331" width="25" height="25" fill="#f5f5f5"/>
  <rect x="281" y="331" width="25" height="25" fill="#f5f5f5"/>
  <rect x="306" y="331" width="25" height="25" fill="#f5f5f5"/>
  <rect x="331" y="331" width="25" height="25" fill="#f5f5f5"/>
  <rect x="356" y="331" width="25" height="25" fill="#f5f5f5"/>
  <rect x="381" y="331" width="25" height="25" fill="#f5f5f5"/>
  <rect x="406" y="331" width="25" height="25" fill="#f5f5f5"/>
  <rect x="106" y="356" width="25" height="25" fill="#f5f5f5"/>
  <rect x="131" y="356" width="25" height="25" fill="#f5f5f5"/>
  <rect x="156" y="356" width="25" height="25" fill="#f5f5f5"/>
  <rect x="181" y="356" width="25" height="25" fill="#f5f5f5"/>
  <rect x="206" y="356" width="25" height="25" fill="#f5f5f5"/>
  <rect x="231" y="356" width="25" height="25" fill="#f5f5f5"/>
  <rect x="256" y="356" width="25" height="25" fill="#f5f5f5"/>
  <rect x="281" y="356" width="25" height="25" fill="#f5f5f5"/>
  <rect x="306" y="356" width="25" height="25" fill="#f5f5f5"/>
  <rect x="331" y="356" width="25" height="25" fill="#f5f5f5"/>
  <rect x="356" y="356" width="25" height="25" fill="#f5f5f5"/>
  <rect x="381" y="356" width="25" height="25" fill="#f5f5f5"/>
  <rect x="131" y="381" width="25" height="25" fill="#f5f5f5"/>
  <rect x="156" y="381" width="25" height="25" fill="#f5f5f5"/>
  <rect x="181" y="381" width="25" height="25" fill="#f5f5f5"/>
  <rect x="206" y="381" width="25" height="25" fill="#f5f5f5"/>
  <rect x="231" y="381" width="25" height="25" fill="#f5f5f5"/>
  <rect x="256" y="381" width="25" height="25" fill="#f5f5f5"/>
  <rect x="281" y="381" width="25" height="25" fill="#f5f5f5"/>
  <rect x="306" y="381" width="25" height="25" fill="#f5f5f5"/>
  <rect x="331" y="381" width="25" height="25" fill="#f5f5f5"/>
  <rect x="356" y="381" width="25" height="25" fill="#f5f5f5"/>
  <rect x="156" y="406" width="25" height="25" fill="#f5f5f5"/>
  <rect x="181" y="406" width="25" height="25" fill="#f5f5f5"/>
  <rect x="206" y="406" width="25" height="25" fill="#f5f5f5"/>
  <rect x="231" y="406" width="25" height="25" fill="#f5f5f5"/>
  <rect x="256" y="406" width="25" height="25" fill="#f5f5f5"/>
  <rect x="281" y="406" width="25" height="25" fill="#f5f5f5"/>
  <rect x="306" y="406" width="25" height="25" fill="#f5f5f5"/>
  <rect x="331" y="406" width="25" height="25" fill="#f5f5f5"/>
  <rect x="206" y="431" width="25" height="25" fill="#f5f5f5"/>
  <rect x="231" y="431" width="25" height="25" fill="#f5f5f5"/>
  <rect x="256" y="431" width="25" height="25" fill="#f5f5f5"/>
  <rect x="281" y="431" width="25" height="25" fill="#f5f5f5"/>
</svg>
